# xmcd
#
# Track frame offsets:
# 150
# 12353
# 27155
# 39325
# 62560
# 78574
# 101042
# 114133
# 129439
# 147532
# 158616
#
# Disc length: 2336 seconds
#
#
# Revision: 0
# Processed by: cddbd v1.5.2PL0 Copyright (c) Steve Scherf et al.
# Submitted via: Nero 7, 11, 10, 0 
#
DISCID=84091e0b
DTITLE=Len Rainey and The Midnight Players - I Better Move On
DYEAR=1998
DGENRE=Blues
TTITLE0=This Old Cold Feeling
TTITLE1=Cross My Heart
TTITLE2=Sledgehammer Soul
TTITLE3=I Better Move On
TTITLE4=Madeline
TTITLE5=Let It Rain
TTITLE6=Fine Little Woman
TTITLE7=Can't You See
TTITLE8=Night Life
TTITLE9=Shake It Up Baby
TTITLE10=A Good Woman
EXTD=
EXTT0=This Old Cold Feeling
EXTT1=Cross My Heart
EXTT2=Sledgehammer Soul
EXTT3=I Better Move On
EXTT4=Madeline
EXTT5=Let It Rain
EXTT6=Fine Little Woman
EXTT7=Can't You See
EXTT8=Night Life
EXTT9=Shake It Up Baby
EXTT10=A Good Woman
PLAYORDER=
